<svg xmlns="http://www.w3.org/2000/svg" width="340" height="171" fill="none" viewBox="0 0 340 171"><path fill="#363336" d="M169.97 11.735s4.435 7.614 42.835 9.488c38.4 1.873 61.845 9.748 63.47 19.188 0 0 19.793-.901 23.434 13.104 3.178 12.191 6.854 24.465 18.761 31.51-11.859 7.032-15.583 19.318-18.761 31.498-3.641 14.017-23.434 13.104-23.434 13.104-1.625 9.487-25.07 17.362-63.47 19.188-38.4 1.826-42.835 9.487-42.835 9.487s-4.424-7.613-42.835-9.487c-38.412-1.874-61.846-9.796-63.458-19.236 0 0-19.817.914-23.446-13.104-3.166-12.179-6.843-24.465-18.75-31.498 11.86-7.044 15.584-19.318 18.75-31.51 3.63-14.005 23.446-13.104 23.446-13.104 1.613-9.487 25.058-17.361 63.458-19.188 38.4-1.826 42.835-9.487 42.835-9.487"/><path fill="#9E8416" d="M308.034 71.908c-3.332-5.846-5.253-12.535-7.008-19.2-3.25-12.392-19.283-13.044-22.936-13.044h-.747c-1.625-9.488-25.307-17.35-64.098-19.177C174.453 18.661 169.971 11 169.971 11s-4.471 7.614-43.274 9.487c-38.803 1.874-62.462 9.737-64.04 19.177h-.747c-3.652 0-19.686.711-22.935 13.044-.842 3.203-1.72 6.404-2.775 9.488-1.743 8.752-6.606 16.828-13.71 23.564 10.093 7.198 13.52 18.571 16.485 29.873 3.237 12.405 19.224 13.14 22.876 13.14h.747c1.637 9.428 25.32 17.35 64.099 19.176 38.779 1.826 43.274 9.487 43.274 9.487s4.471-7.613 43.274-9.487c38.803-1.874 62.473-9.748 64.098-19.176h.747c3.653 0 19.686-.712 22.936-13.104 3.071-11.682 6.641-23.458 17.563-30.597a50.163 50.163 0 0 1-10.555-13.164Zm-14.385 42.693c-2.039 7.744-11.562 8.574-15.559 8.574h-.284l-7.021-.32-.878 5.183c-.83 4.862-19.116 12.511-57.113 14.302-23.659 1.114-36.182 4.376-42.8 7.483-6.617-3.107-19.128-6.369-42.799-7.483-37.95-1.791-56.272-9.488-57.114-14.302l-.842-5.195-7.02.321h-.344c-3.997 0-13.531-.831-15.56-8.575-2.454-9.345-5.668-21.607-15.582-30.406 9.914-8.788 13.128-21.062 15.583-30.395 2.028-7.744 11.562-8.574 15.559-8.574h.285l7.02.32.901-5.206c.819-4.792 19.093-12.5 57.09-14.279 23.718-1.114 36.182-4.376 42.8-7.495 6.617 3.12 19.14 6.38 42.799 7.495 37.949 1.79 56.284 9.487 57.114 14.29l.842 5.207 7.02-.32h.344c3.997 0 13.52.83 15.559 8.574 2.455 9.345 5.681 21.607 15.583 30.395-9.902 8.799-13.128 21.061-15.583 30.406Z"/><g style="mix-blend-mode:screen"><mask id="mask0_1377_341" width="280" height="67" x="30" y="85" maskUnits="userSpaceOnUse" style="mask-type:luminance"><path fill="#fff" d="M309.232 85.024H30.708v66.482h278.524V85.024Z"/></mask><g mask="url(#mask0_1377_341)"><path fill="#BFA812" d="M46.292 116.273c2.028 7.732 11.563 8.574 15.56 8.574h.343l7.02-.332.843 5.206c.842 4.862 19.117 12.511 57.113 14.302 23.718 1.115 36.182 4.364 42.8 7.483 6.617-3.119 19.14-6.368 42.799-7.483 37.949-1.791 56.284-9.487 57.114-14.302l.901-5.194 7.021.32h.284c3.997 0 13.52-.842 15.559-8.574 2.455-9.345 5.681-21.608 15.583-30.407-.308-.273-.593-.558-.889-.842-9.191 8.728-12.345 20.481-14.717 29.565-2.04 7.744-11.563 8.574-15.559 8.574h-.285l-7.021-.32-.853 5.194c-.831 4.862-19.117 12.511-57.114 14.302-23.659 1.115-36.182 4.376-42.8 7.483-6.617-3.107-19.128-6.368-42.799-7.483-37.95-1.791-56.272-9.487-57.113-14.302l-.842-5.194-7.021.32h-.344c-3.997 0-13.531-.83-15.56-8.574-2.371-9.049-5.49-20.837-14.693-29.565-.296.284-.58.57-.89.842 9.915 8.8 13.129 21.062 15.584 30.407"/></g></g><path fill="#E5C25C" d="M70.057 42.012C70.9 37.15 89.174 29.5 127.171 27.78c23.718-1.115 36.182-4.376 42.799-7.495 6.618 3.119 19.141 6.38 42.788 7.495 38.008 1.779 56.295 9.487 57.125 14.23l.854 5.207 7.009-.32h.344c3.996 0 13.519.83 15.559 8.574 2.455 9.333 5.681 21.607 15.583 30.395-9.902 8.8-13.128 21.062-15.583 30.407-2.04 7.732-11.563 8.574-15.559 8.574h-.285l-7.02-.321-.902 5.195c-.83 4.862-19.116 12.511-57.113 14.302-23.659 1.115-36.182 4.364-42.8 7.483-6.617-3.119-19.128-6.368-42.799-7.483-37.95-1.791-56.272-9.487-57.114-14.302l-.842-5.242-7.02.332h-.344c-3.997 0-13.531-.842-15.56-8.574-2.454-9.345-5.668-21.607-15.582-30.407 9.914-8.8 13.128-21.062 15.583-30.407 2.028-7.732 11.562-8.562 15.559-8.562h.284l7.021.32.901-5.17Zm56.639-19.888C87.917 23.95 64.234 31.86 62.657 41.3h-.747c-3.652 0-19.686.712-22.935 13.105C35.773 66.572 32.06 78.846 20 85.879c12.025 7.032 15.737 19.306 18.975 31.486 3.249 12.38 19.282 13.045 22.935 13.045h.747c1.637 9.428 25.32 17.349 64.099 19.176 38.779 1.826 43.274 9.487 43.274 9.487s4.471-7.602 43.274-9.487c38.803-1.886 62.414-9.689 64.039-19.176h.747c3.652 0 19.686-.724 22.935-13.045 3.202-12.18 6.914-24.454 18.975-31.486-12.025-7.033-15.737-19.307-18.975-31.475C297.776 42.013 281.742 41.3 278.09 41.3h-.747c-1.625-9.487-25.308-17.35-64.099-19.176-38.791-1.826-43.274-9.487-43.274-9.487s-4.471 7.613-43.274 9.487Z"/><path fill="url(#paint0_linear_1377_341)" d="M64.959 76.83c3.558.653 9.962 3.404 9.962 9.322 0 5.455-6.416 8.61-9.962 9.261v.25c6.451-.997 11.61-4.744 11.61-9.488 0-5.514-5.159-8.562-11.61-9.57v.225Zm-8.823-11.966v28.249c0 2.55-1.186 2.656-2.1 2.751v.154c2.953 0 3.76-1.897 3.76-3.96V63.594c0-3.154 1.044-4.304 1.945-5.206v-.154a7.982 7.982 0 0 0-3.558 6.618m6.617-.914v29.162c0 2.55-1.458 2.656-2.371 2.751v.166a3.652 3.652 0 0 0 4.008-3.96V57.238a11.704 11.704 0 0 0-1.684 6.76m-3.309-.89V93.16c0 2.55-1.186 2.657-2.11 2.752v.106c2.964 0 3.865-1.897 3.865-3.96V61.804c0-2.657 2.752-4.91 3.203-6.214.604 1.185 9.57 2.656 9.57 9.819 0 5.005-5.467 9.013-9.013 9.618v.249c6.451-.996 10.673-5.515 10.673-9.665 0-8.112-9.76-8.515-11.266-10.365-.7 1.802-4.957 3.403-4.957 7.815m5.004-9.369c.96 2.704 12.927 3.155 12.927 11.717 0 6.665-8.302 10.424-12.37 10.424v.19c4.104.06 13.271 2.514 13.271 10.127 0 7.116-9.167 10.211-13.045 10.27v.19c9.618-.498 14.67-5.052 14.67-10.412 0-5.93-4.85-9.57-13.721-10.27 8.87-.652 12.772-5.716 12.772-10.317 0-9.974-12.974-9.168-14.527-12.18l.023.261Zm0-2.004c1.352 4.305 16.236 3.558 16.236 13.72 0 7.71-7.816 10.425-10.78 10.425v.19c2.964.06 11.68 1.506 11.68 10.127 0 8.16-8.716 10.365-11.68 10.413v.201c9.32-.201 13.377-5.206 13.377-10.566 0-5.858-3.855-9.82-11.919-10.317 8.064-.51 10.97-5.717 10.97-10.27 0-11.124-16.081-9.772-17.884-14.125v.202Z"/><path fill="url(#paint1_linear_1377_341)" d="M94.559 57.548a4.327 4.327 0 0 1 1.186 3.154v29.85a4.328 4.328 0 0 1-1.186 3.154 4.186 4.186 0 0 1 2.75-.593h11.777c2.158 0 4.056-.759 4.103-3.557h-.142c-.107.853-.202 2.253-2.906 2.253H99.812a6.76 6.76 0 0 0-3.901.854 3.652 3.652 0 0 0 1.506-3.214V61.805a3.653 3.653 0 0 0-1.507-3.213 6.76 6.76 0 0 0 3.902.853h10.377c2.704 0 2.799 1.411 2.905 2.254h.143c0-2.8-1.945-3.558-4.104-3.558H97.357a4.187 4.187 0 0 1-2.751-.593h-.047Z"/><path fill="url(#paint2_linear_1377_341)" d="m97.69 78.918 10.898.13c1.565 0 1.613.76 1.672 1.305h.119a2.123 2.123 0 0 0-2.372-2.313l-10.294-.13-.023 1.008Z"/><path fill="url(#paint3_linear_1377_341)" d="M90.347 55.389v.154c.902.095 2.1.202 2.1 2.751v34.664c0 2.55-1.187 2.657-2.1 2.704v.202h19.236c2.205 0 4.055-.747 4.103-3.558h-.142c-.107.854-.202 2.253-2.906 2.253H95.221c-.789 0-1.566.19-2.265.558a2.965 2.965 0 0 0 1.198-2.657V58.792a2.954 2.954 0 0 0-1.257-2.644 4.816 4.816 0 0 0 2.265.545h15.417c2.704 0 2.799 1.4 2.905 2.253h.143c0-2.798-1.898-3.557-4.104-3.557H90.347Z"/><path fill="url(#paint4_linear_1377_341)" d="M87.04 55.543c.901.095 2.111.202 2.111 2.751v34.664c0 2.55-1.186 2.657-2.111 2.704v.202c2.905 0 3.76-1.898 3.76-3.902V59.255c0-2.004-.855-3.854-3.76-3.914v.202Z"/><path fill="url(#paint5_linear_1377_341)" d="m108.623 75.443-10.91-.13v1.007l10.293.119a2.12 2.12 0 0 0 2.443-2.265h-.119c-.071.522-.13 1.28-1.695 1.269"/><path fill="url(#paint6_linear_1377_341)" d="m108.623 72.81-10.91-.131v1.044l10.293.118a2.148 2.148 0 0 0 2.443-2.3h-.119c-.071.557-.142 1.28-1.695 1.268"/><path fill="url(#paint7_linear_1377_341)" d="M131.073 74.672a5.064 5.064 0 0 0 2.3-2.371 4.924 4.924 0 0 0 2.372 2.371 7.052 7.052 0 0 0-2.372 2.562 6.463 6.463 0 0 0-2.3-2.562Zm-2.254 0c2.147.202 4.412 3 4.554 4.744.202-1.708 2.455-4.506 4.614-4.744-2.111-.094-4.412-2.81-4.614-4.506-.142 1.696-2.454 4.412-4.554 4.506Zm-11.894-19.33c.854.107 2.099.202 2.099 2.751v35.068c0 2.55-1.186 2.656-2.099 2.751v.202c2.905 0 3.759-1.898 3.759-3.95V59.102c0-2.051-.854-3.913-3.759-3.96v.201Zm5.408 3.76v33.063c0 2.051.853 3.901 3.759 3.949v-.202c-.854-.095-2.111-.202-2.111-2.751V58.07c0-2.55 1.186-2.645 2.111-2.752v-.201c-2.906 0-3.759 1.909-3.759 3.96m3.308 0v33.064c0 2.051.854 3.901 3.807 3.949v-.202c-.901-.095-2.158-.201-2.158-2.751V58.07c0-2.55 1.257-2.645 2.158-2.752v-.201c-2.953 0-3.807 1.909-3.807 3.96Zm11.717-3.759c.901.107 2.099.202 2.099 2.752v35.067c0 2.55-1.186 2.656-2.099 2.751v.202c2.953 0 3.807-1.898 3.807-3.95V59.102c0-2.051-.854-3.913-3.807-3.96v.177Zm3.356 0c.854.107 2.111.202 2.111 2.752v35.067c0 2.55-1.186 2.656-2.111 2.751v.202c2.906 0 3.76-1.898 3.76-3.95V59.102c0-2.051-.854-3.913-3.76-3.96v.177Zm5.408 3.76V92.14c0 2.051.854 3.901 3.759 3.949v-.202c-.854-.095-2.099-.201-2.099-2.751V58.07c0-2.55 1.186-2.645 2.099-2.752v-.201c-2.905 0-3.759 1.909-3.759 3.96Z"/><path fill="url(#paint8_linear_1377_341)" d="M163.685 78.23c5.93.7 10.163 2.158 10.163 7.115v6.866a3.715 3.715 0 0 0 2.471 3.756 3.713 3.713 0 0 0 1.585.193v-.201c-.901-.095-2.372-.202-2.372-2.752v-7.364c0-6.463-5.657-7.365-11.859-7.815l.012.201Zm-8.622-13.318v38.459c0 2.561-1.185 2.656-2.099 2.715v.19c2.953 0 3.76-1.897 3.76-3.901V63.607c0-3.154 1.043-4.305 1.945-5.206v-.154a7.985 7.985 0 0 0-3.558 6.617m6.617-.913v38.376c0 2.004.795 3.854 3.748 3.902v-.19c-.902 0-2.099-.154-2.099-2.716V57.239a11.708 11.708 0 0 0-1.649 6.712Zm-3.308-.89v39.266a3.666 3.666 0 0 0 1.119 2.895 3.668 3.668 0 0 0 2.936 1.007v-.19c-.901 0-2.371-.154-2.371-2.716V61.816c0-2.656 2.703-4.66 3.249-6.214 2.052 1.91 10.519 2.657 10.519 10.27 0 5.93-6.665 9.665-10.163 10.318v.201c6.404-1.008 11.859-5.253 11.859-10.317 0-8.563-10.673-8.823-12.168-10.816-1.186 2.253-4.957 3.404-4.957 7.815m5.005-9.428c.605 2.61 13.828 3.214 13.828 12.227 0 7.566-9.417 11.065-13.33 11.124v.202c.403 0 13.33.652 13.33 7.66v7.318c0 2.051.853 3.901 3.759 3.949v-.202c-.901-.095-2.111-.201-2.111-2.751v-7.827c0-7.614-9.013-8.16-13.567-8.302 8.468-.853 13.567-5.36 13.567-11.017 0-10.424-14.468-9.819-15.476-12.677v.296Zm0-1.944c1.553 4.304 17.136 3.557 17.136 14.171 0 8.622-7.815 10.875-10.78 10.875v.19c1.364 0 10.78.605 10.78 7.767v7.472c0 2.051.842 3.901 3.748 3.949v-.202c-.902-.095-2.052-.201-2.052-2.751v-7.91c0-7.614-5.929-8.302-10.815-8.468 7.957-.853 10.815-5.063 10.815-10.673 0-11.574-17.124-10.365-18.832-14.575v.155Z"/><path fill="url(#paint9_linear_1377_341)" d="M198.041 85.345V67.663c0-6.262 3.558-8.219 4.613-9.369 1.186 1.186 4.661 3.107 4.661 9.369v17.682c0 6.214-3.558 8.159-4.661 9.321-1.103-1.186-4.613-3.107-4.613-9.321Zm-1.66-17.931v18.085c0 7.115 4.744 7.613 6.262 9.57 1.553-1.957 6.261-2.455 6.261-9.57V67.414c0-7.116-4.743-7.614-6.261-9.57-1.507 1.956-6.262 2.454-6.262 9.57Zm-1.696 17.93V67.664c0-7.768 6.262-8.468 7.969-11.065 1.696 2.597 8.017 3.297 8.017 11.065v17.682c0 7.708-6.321 8.408-8.017 11.017-1.707-2.61-7.969-3.309-7.969-11.017Zm-1.601-17.883v18.085c0 8.966 7.317 7.614 9.57 11.266 2.254-3.652 9.618-2.3 9.618-11.266V67.414c0-8.966-7.364-7.614-9.618-11.267-2.253 3.653-9.57 2.301-9.57 11.267m-1.708 18.334V67.212c0-9.072 9.488-8.064 11.278-12.57 1.803 4.506 11.267 3.557 11.267 12.57v18.536c0 9.013-9.488 8.017-11.267 12.57-1.802-4.553-11.278-3.557-11.278-12.57Zm-1.601-18.334v18.085c0 10.21 11.67 8.716 12.879 13.377 1.246-4.66 12.927-3.166 12.927-13.377V67.414c0-10.223-11.681-8.717-12.927-13.377-1.186 4.66-12.879 3.154-12.879 13.377Z"/><path fill="url(#paint10_linear_1377_341)" d="M240.118 55.246c.901.094 2.372.201 2.372 2.75v23.992c0 6.214-2.503 8.301-5.716 8.301-3.214 0-5.752-2.099-5.752-8.301V57.997c0-2.55 1.494-2.657 2.372-2.751v-.154a3.663 3.663 0 0 0-4.056 3.901v22.793c0 7.116 2.953 9.82 7.412 9.82s7.424-2.704 7.424-9.82V58.993a3.647 3.647 0 0 0-1.106-2.91 3.635 3.635 0 0 0-2.95-.991v.154Zm5.716 3.747v23.15c0 7.565-3.166 10.767-9.025 10.767-5.858 0-9.06-3.202-9.06-10.768V58.993c0-2.052-.854-3.901-3.807-3.901v.154c.901.094 2.147.201 2.147 2.75V81.94c0 8.966 4.364 12.168 10.673 12.168s10.673-3.202 10.673-12.168V57.998c0-2.55 1.186-2.657 2.099-2.751v-.154c-2.906 0-3.748 1.85-3.748 3.901m3.297 0v23.493c0 9.072-5.348 12.974-12.321 12.974s-12.369-3.902-12.369-12.974V58.993c0-2.052-.795-3.901-3.76-3.901v.154c.902.094 2.111.201 2.111 2.75v24.241c0 10.27 7.009 14.527 14.018 14.527 7.008 0 14.029-4.257 14.029-14.527v-24.24c0-2.55 1.186-2.657 2.052-2.751v-.154c-2.906 0-3.76 1.85-3.76 3.901Z"/><path fill="url(#paint11_linear_1377_341)" d="M275.232 58.068h-14.325c-2.159 0-4.056.558-4.104 3.309h.143c.106-.854.201-2.004 2.905-2.004h12.879a6.996 6.996 0 0 0 3.949-.854 3.746 3.746 0 0 0-1.542 3.214v.498c0 8.301-18.132 14.729-18.132 26.291v4.412c0 2.609-1.186 2.704-2.064 2.751v.332c2.906-.059 3.76-1.909 3.76-3.913v-3.25c0-10.97 18.085-17.492 18.085-26.457v-1.85a3.555 3.555 0 0 1 1.186-3v-.155a4.2 4.2 0 0 1-2.752.747m-14.23-2.751c-2.1 0-4.056.557-4.104 3.356h.202c.095-.901.154-2.051 2.858-2.051h17.433a4.866 4.866 0 0 0 2.301-.558 3.013 3.013 0 0 0-1.258 2.657v3.806c0 8.42-18.073 16.686-18.073 25.9v4.163c0 2.597-1.186 2.953-2.111 3.048v.202h21.157c2.099 0 4.056-.546 4.056-3.357h-.154c-.095.902-.143 2.052-2.858 2.052h-17.374a5.02 5.02 0 0 0-2.313.557 2.955 2.955 0 0 0 1.257-2.656V88.7c0-8.764 18.086-16.603 18.086-25.9v-4.163c0-2.597 1.185-2.953 2.099-3.047v-.202H260.99Zm20.777 3.76v3.26c0 10.674-18.085 17.528-18.085 26.446v1.85a3.569 3.569 0 0 1-1.186 3v.155a4.22 4.22 0 0 1 2.751-.747h14.326c2.158 0 4.056-.558 4.115-3.309h-.154c-.107.854-.202 2.004-2.906 2.004h-12.914a6.994 6.994 0 0 0-3.949.854 3.747 3.747 0 0 0 1.553-3.214v-.545c0-8.302 18.133-15.073 18.133-26.292V58.2c0-2.61 1.186-2.704 2.051-2.752v-.249c-2.905 0-3.759 1.898-3.759 3.902"/><path fill="#E7D686" d="M91.878 112.549v13.437s-2.87 0-2.87-1.4v-12.037h-2.644c-1.779 0-2.028-1.352-2.028-2.466a6.21 6.21 0 0 0 2.372.343h7.53c.806.04 1.611-.077 2.372-.343 0 1.114-.249 2.466-2.04 2.466h-2.692ZM100.748 125.915s-2.799 0-2.799-1.435v-15.061c.142 0 2.787-.059 2.787 1.613v2.977a6.869 6.869 0 0 1-.178 1.292 4.655 4.655 0 0 1 2.775-.842c2.289 0 4.293 1.186 4.293 3.712v7.744s-2.798 0-2.798-1.387v-5.977c0-1.388-.748-1.993-1.779-1.993-1.032 0-2.372.736-2.372 1.779l.071 7.578ZM109.998 122.251v-4.008c0-2.372 1.672-3.784 4.744-3.784 3.071 0 4.518 1.424 4.518 3.558 0 1.815-1.067 3.558-4.459 3.558a5.584 5.584 0 0 1-2.016-.38v.771c0 1.281.771 1.957 2.372 1.957 2.122 0 3.557-.901 3.557-2.194.398.502.63 1.116.665 1.755 0 1.554-1.779 2.574-4.246 2.574-3.261 0-5.171-1.412-5.171-3.772m2.787-3.071c.53.12 1.07.187 1.613.202 1.542 0 2.075-.499 2.075-1.352 0-.854-.486-1.53-1.826-1.53s-1.862.747-1.862 2.063v.617ZM134.464 118.907c2.609 1.517 3.558 4.85 4.909 6.819-.427.109-.864.18-1.304.213a2.742 2.742 0 0 1-2.562-1.388c-1.186-2.146-2.122-4.613-4.85-5.395v6.83s-2.87 0-2.87-1.399v-14.16h4.957c3.261 0 5.598.949 5.598 3.89v.676a3.75 3.75 0 0 1-3.878 3.949m-3.807-6.356v4.447h2.253c1.898 0 2.562-.795 2.562-2.372s-.878-2.087-2.728-2.087l-2.087.012ZM150.794 122.251c0 2.372-1.66 3.771-5.17 3.771-3.511 0-5.171-1.411-5.171-3.771v-4.008c0-2.372 1.649-3.784 5.171-3.784 3.522 0 5.17 1.424 5.17 3.784v4.008Zm-2.798-3.7c0-1.305-.404-2.064-2.372-2.064-1.969 0-2.372.759-2.372 2.064v3.368c0 1.304.403 2.063 2.372 2.063 1.968 0 2.372-.759 2.372-2.063v-3.368ZM155.408 116.309l.427 2.893a5.408 5.408 0 0 0 1.862 3.677 5.626 5.626 0 0 0 1.897-3.677l.379-2.87c.238-1.743 2.918-1.767 2.918-1.767l-.475 4.258a9.094 9.094 0 0 1-3.379 5.929l-.842.641c-1.376 1.079-2.443 1.98-2.443 3.415.014.646.168 1.281.45 1.862-.361.205-.77.311-1.186.308-1.008 0-1.98-.711-1.98-2.371 0-1.957 1.376-3.096 2.988-4.27a7.661 7.661 0 0 1-3.071-5.467l-.474-4.257s2.62 0 2.881 1.743M170.837 118.005c0-.771-.427-1.458-2.087-1.458-1.661 0-3.428.616-3.428 2.371a3.378 3.378 0 0 1-.818-2.075c0-1.874 2.514-2.372 4.269-2.372 3.155 0 4.827 1.328 4.827 3.677v7.85a3.554 3.554 0 0 0-1.648-.344c-1.08 0-2.147.38-3.368.38-2.206 0-4.376-.807-4.376-3.368 0-4.009 5.751-2.953 6.629-4.649m0 2.182c-.486 1.186-3.926.522-3.926 2.431 0 .961.712 1.459 1.933 1.459.684 0 1.36-.133 1.993-.391v-3.499ZM175.947 109.383c.166 0 2.787 0 2.787 1.387v11.089c0 1.186 0 3.202 1.518 3.202a2.02 2.02 0 0 1-1.779.853c-1.731 0-2.526-1.565-2.526-3.368v-13.163ZM187.64 110.427h4.957c3.262 0 5.598.973 5.598 3.902v.545a3.554 3.554 0 0 1-1.672 3.131 3.56 3.56 0 0 1 1.885 3.238v.533c0 2.811-2.371 3.997-5.811 3.997h-2.644s-2.372 0-2.372-1.399l.059-13.947Zm2.87 2.123v4.4h2.313c1.885 0 2.549-.83 2.549-2.372 0-1.542-.877-2.004-2.715-2.004l-2.147-.024Zm0 6.523v4.577h2.087c2.052 0 2.942-.605 2.942-2.194s-.842-2.372-2.776-2.372l-2.253-.011ZM200.769 114.566c.177 0 2.798 0 2.798 1.4v9.95s-2.798 0-2.798-1.388v-9.962Zm.071-3.961h1.885c.344 0 .795.321.795.617v1.779h-1.886a.745.745 0 0 1-.794-.617v-1.779ZM206.14 124.481v-10.045c.507.274 1.073.42 1.649.427.948 0 1.885-.45 3.154-.45 1.518 0 2.894.557 2.894 2.016a3.654 3.654 0 0 1-.985 2.111c0-1.352-1.067-1.957-2.312-1.957a7.094 7.094 0 0 0-1.613.237v9.049s-2.787 0-2.787-1.388ZM217.145 116.309l.427 2.893a5.344 5.344 0 0 0 1.874 3.677 5.706 5.706 0 0 0 1.886-3.677l.379-2.87c.237-1.743 2.917-1.767 2.917-1.767l-.462 4.258a9.155 9.155 0 0 1-3.392 5.929l-.842.641c-1.375 1.079-2.443 1.98-2.443 3.415.015.646.169 1.281.451 1.862a2.372 2.372 0 0 1-1.186.308c-1.008 0-1.969-.711-1.969-2.371 0-1.957 1.364-3.096 2.977-4.27a7.677 7.677 0 0 1-3.071-5.467l-.463-4.257s2.609 0 2.87 1.743M232.575 118.005c0-.771-.427-1.458-2.088-1.458-1.66 0-3.427.616-3.427 2.371a3.447 3.447 0 0 1-.818-2.075c0-1.874 2.514-2.372 4.269-2.372 3.155 0 4.827 1.328 4.827 3.677v7.85a3.558 3.558 0 0 0-1.649-.344c-1.067 0-2.146.38-3.368.38-2.205 0-4.376-.807-4.376-3.368 0-4.009 5.752-2.953 6.63-4.649m0 2.182c-.487 1.186-3.926.522-3.926 2.431 0 .961.712 1.459 1.933 1.459.683 0 1.36-.133 1.993-.391v-3.499ZM244.683 118.326c0-1.186-.546-1.779-2.064-1.779a7.657 7.657 0 0 0-2.04.296v9.072s-2.787 0-2.787-1.387v-10.069a4.455 4.455 0 0 0 1.934.451c1.043 0 2.039-.451 3.19-.451 2.217 0 4.554.759 4.554 3.558v7.91s-2.787 0-2.787-1.387v-6.214ZM250.042 114.566c.178 0 2.787 0 2.787 1.4v9.95s-2.787 0-2.787-1.388v-9.962Zm.072-3.961h1.885c.344 0 .795.321.795.617v1.779h-1.862a.734.734 0 0 1-.783-.617l-.035-1.779ZM74.231 119.215c2.218-.783 2.633-1.186 4.34-4.056 1.637 3.095 2.515 3.285 4.27 4.068a6.604 6.604 0 0 0-4.245 4.352 6.643 6.643 0 0 0-4.365-4.364Zm4.282 2.063a.96.96 0 0 0 .225-.118 11.99 11.99 0 0 1 1.648-1.743c.214-.166 0-.321-.118-.427-.64-.415-1.068-1.305-1.637-1.459-.57-.154-.877 1.02-1.553 1.352l-.119.083c-.296.202-.296.403 0 .605a6.72 6.72 0 0 1 1.293 1.352l.249.308M255.499 119.215c2.206-.783 2.621-1.186 4.329-4.056 1.636 3.095 2.526 3.285 4.281 4.068a6.635 6.635 0 0 0-4.258 4.352 6.615 6.615 0 0 0-4.352-4.364Zm4.281 2.063a.947.947 0 0 0 .225-.118 12.038 12.038 0 0 1 1.649-1.743c.213-.166 0-.321-.131-.427-.64-.415-1.055-1.305-1.624-1.459-.569-.154-.878 1.02-1.554 1.352l-.13.083c-.297.202-.297.403 0 .605.507.4.955.871 1.328 1.399l.249.308"/><path fill="#9E8416" d="M46.292 116.273c2.028 7.732 11.563 8.574 15.56 8.574h.343l7.02-.332.843 5.206c.842 4.862 19.117 12.511 57.113 14.302 23.718 1.115 36.182 4.376 42.8 7.483 6.617-3.107 19.14-6.368 42.799-7.483 37.949-1.791 56.284-9.487 57.114-14.302l.901-5.194 7.021.32h.284c3.997 0 13.52-.842 15.559-8.574 2.455-9.345 5.681-21.608 15.583-30.407-.308-.273-.593-.558-.889-.842-9.191 8.728-12.345 20.481-14.717 29.565-2.04 7.744-11.563 8.574-15.559 8.574h-.285l-7.021-.32-.853 5.194c-.831 4.862-19.117 12.511-57.114 14.302-23.659 1.115-36.182 4.376-42.8 7.483-6.617-3.107-19.128-6.368-42.799-7.483-37.95-1.791-56.272-9.487-57.113-14.302l-.842-5.194-7.021.32h-.344c-3.997 0-13.531-.83-15.56-8.574-2.371-9.049-5.49-20.837-14.693-29.565-.296.284-.58.57-.89.842 9.915 8.8 13.129 21.062 15.584 30.407"/><defs><linearGradient id="paint0_linear_1377_341" x1="68.635" x2="68.635" y1="55.994" y2="111.957" gradientUnits="userSpaceOnUse"><stop stop-color="#E5C25C"/><stop offset="1" stop-color="#FFF18D"/></linearGradient><linearGradient id="paint1_linear_1377_341" x1="103.904" x2="103.904" y1="55.994" y2="111.957" gradientUnits="userSpaceOnUse"><stop stop-color="#E5C25C"/><stop offset="1" stop-color="#FFF18D"/></linearGradient><linearGradient id="paint2_linear_1377_341" x1="104.034" x2="104.034" y1="55.994" y2="111.957" gradientUnits="userSpaceOnUse"><stop stop-color="#E5C25C"/><stop offset="1" stop-color="#FFF18D"/></linearGradient><linearGradient id="paint3_linear_1377_341" x1="102.017" x2="102.017" y1="55.993" y2="111.957" gradientUnits="userSpaceOnUse"><stop stop-color="#E5C25C"/><stop offset="1" stop-color="#FFF18D"/></linearGradient><linearGradient id="paint4_linear_1377_341" x1="88.926" x2="88.926" y1="55.994" y2="111.957" gradientUnits="userSpaceOnUse"><stop stop-color="#E5C25C"/><stop offset="1" stop-color="#FFF18D"/></linearGradient><linearGradient id="paint5_linear_1377_341" x1="104.081" x2="104.081" y1="55.994" y2="111.957" gradientUnits="userSpaceOnUse"><stop stop-color="#E5C25C"/><stop offset="1" stop-color="#FFF18D"/></linearGradient><linearGradient id="paint6_linear_1377_341" x1="104.116" x2="104.116" y1="55.993" y2="111.956" gradientUnits="userSpaceOnUse"><stop stop-color="#E5C25C"/><stop offset="1" stop-color="#FFF18D"/></linearGradient><linearGradient id="paint7_linear_1377_341" x1="133.421" x2="133.421" y1="55.994" y2="111.957" gradientUnits="userSpaceOnUse"><stop stop-color="#E5C25C"/><stop offset="1" stop-color="#FFF18D"/></linearGradient><linearGradient id="paint8_linear_1377_341" x1="168.595" x2="168.595" y1="55.994" y2="111.957" gradientUnits="userSpaceOnUse"><stop stop-color="#E5C25C"/><stop offset="1" stop-color="#FFF18D"/></linearGradient><linearGradient id="paint9_linear_1377_341" x1="202.678" x2="202.678" y1="55.993" y2="111.957" gradientUnits="userSpaceOnUse"><stop stop-color="#E5C25C"/><stop offset="1" stop-color="#FFF18D"/></linearGradient><linearGradient id="paint10_linear_1377_341" x1="236.785" x2="236.785" y1="55.993" y2="111.956" gradientUnits="userSpaceOnUse"><stop stop-color="#E5C25C"/><stop offset="1" stop-color="#FFF18D"/></linearGradient><linearGradient id="paint11_linear_1377_341" x1="270.228" x2="270.228" y1="55.993" y2="111.956" gradientUnits="userSpaceOnUse"><stop stop-color="#E5C25C"/><stop offset="1" stop-color="#FFF18D"/></linearGradient></defs></svg>