<svg width="32px" height="32px" viewBox="0 0 36 36" fill="none" xmlns="http://www.w3.org/2000/svg"><circle cx="18" cy="18" r="17.5" fill="none"/><circle cx="18" cy="18" r="17.5" stroke="#fff" stroke-opacity=".2"/><circle cx="18" cy="18" r="17.5" stroke="#fff" stroke-opacity=".2"/><circle cx="18" cy="18" r="17.5" stroke="#fff" stroke-opacity=".2"/><circle cx="18" cy="18" r="17.5" stroke="#fff" stroke-opacity=".2"/><circle cx="18" cy="18" r="17.5" stroke="#fff" stroke-opacity=".2"/><circle cx="18" cy="18" r="17.5" stroke="#fff" stroke-opacity=".2"/><circle cx="18" cy="18" r="17.5" stroke="#fff" stroke-opacity=".2"/><circle cx="18" cy="18" r="17.5" stroke="#fff" stroke-opacity=".2"/><circle cx="18" cy="18" r="17.5" stroke="#fff" stroke-opacity=".2"/><circle cx="18" cy="18" r="17.5" stroke="#fff" stroke-opacity=".2"/><path d="M12.785 9c-.23 0-.534 0-.91.082a6.416 6.416 0 0 0-.868.245c-.426.246-.878.736-1.356 1.636a4.7 4.7 0 0 0-.472 1.106l-.003.01c-.04.143-.067.29-.093.436-.012.065-.03.13-.04.196-.015.11-.017.22-.024.33-.006.093-.019.186-.019.277v.016c0 .245.013.408.038.653.034.245.09.49.166.736.077.273.137.476.18.613l.208.532c.025.064.031.09.06.163.127.327.204.573.23.654.163.45.348.867.546 1.267.16.337.328.662.514.96.432.702.98 1.412 1.614 2.14.352.415.723.838 1.136 1.275.776.76 1.533 1.403 2.275 1.947.372.281.742.545 1.107.771a11.097 11.097 0 0 0 1.825.898c.143.057.275.122.423.175.077.026.273.102.614.23.128.048.168.061.268.096.102.042.19.075.263.095.049.016.151.052.184.065.048.015.15.043.216.062.118.053.218.106.392.159.128 0 .248.02.363.047l.06.016c.108.03.212.063.307.1h.68c.784 0 1.575-.205 2.376-.64.861-.478 1.38-.927 1.559-1.354.049-.11.093-.243.136-.394l.001-.005c.045-.143.088-.306.131-.47.085-.408.128-.653.128-.898 0-.164-.013-.246-.038-.328-.007-.01-.055-.043-.069-.058a1.53 1.53 0 0 0-.34-.274l-.01.014a7.447 7.447 0 0 0-.554-.337c-.162-.082-.391-.245-.69-.409-.298-.163-.57-.245-.817-.408-.24-.164-.466-.246-.679-.409-.034 0-.14-.08-.32-.244a3.789 3.789 0 0 1-.46-.246c-.119-.082-.238-.082-.357-.082-.17 0-.384.082-.639.328-.256.245-.492.572-.704.817a5.258 5.258 0 0 1-.677.818c-.239.245-.435.328-.588.328a.47.47 0 0 1-.296-.083c-.11 0-.195-.082-.255-.082s-.162-.081-.307-.163c-.144-.082-.225-.164-.242-.164-1.168-.654-2.17-1.39-3.004-2.207-.835-.818-1.577-1.88-2.225-3.025-.008 0-.06-.083-.153-.246-.085-.163-.145-.245-.179-.327-.025 0-.06-.081-.102-.245a.529.529 0 0 1-.064-.246c0-.163.12-.409.358-.654.247-.245.51-.408.792-.653.29-.164.555-.41.794-.655.247-.327.37-.49.37-.653 0-.163-.03-.245-.09-.409-.06-.082-.153-.245-.28-.408-.12-.246-.192-.328-.218-.328a30.84 30.84 0 0 0-.397-.736c-.137-.245-.285-.49-.447-.818-.162-.245-.29-.49-.383-.654-.299-.573-.524-.899-.678-.98L12.786 9z" fill="#fff"/><path d="M12.785 9c-.23 0-.534 0-.91.082a6.416 6.416 0 0 0-.868.245c-.426.246-.878.736-1.356 1.636a4.7 4.7 0 0 0-.472 1.106l-.003.01c-.04.143-.067.29-.093.436-.012.065-.03.13-.04.196-.015.11-.017.22-.024.33-.006.093-.019.186-.019.277v.016c0 .245.013.408.038.653.034.245.09.49.166.736.077.273.137.476.18.613l.208.532c.025.064.031.09.06.163.127.327.204.573.23.654.163.45.348.867.546 1.267.16.337.328.662.514.96.432.702.98 1.412 1.614 2.14.352.415.723.838 1.136 1.275.776.76 1.533 1.403 2.275 1.947.372.281.742.545 1.107.771a11.097 11.097 0 0 0 1.825.898c.143.057.275.122.423.175.077.026.273.102.614.23.128.048.168.061.268.096.102.042.19.075.263.095.049.016.151.052.184.065.048.015.15.043.216.062.118.053.218.106.392.159.128 0 .248.02.363.047l.06.016c.108.03.212.063.307.1h.68c.784 0 1.575-.205 2.376-.64.861-.478 1.38-.927 1.559-1.354.049-.11.093-.243.136-.394l.001-.005c.045-.143.088-.306.131-.47.085-.408.128-.653.128-.898 0-.164-.013-.246-.038-.328-.007-.01-.055-.043-.069-.058a1.53 1.53 0 0 0-.34-.274l-.01.014a7.447 7.447 0 0 0-.554-.337c-.162-.082-.391-.245-.69-.409-.298-.163-.57-.245-.817-.408-.24-.164-.466-.246-.679-.409-.034 0-.14-.08-.32-.244a3.789 3.789 0 0 1-.46-.246c-.119-.082-.238-.082-.357-.082-.17 0-.384.082-.639.328-.256.245-.492.572-.704.817a5.258 5.258 0 0 1-.677.818c-.239.245-.435.328-.588.328a.47.47 0 0 1-.296-.083c-.11 0-.195-.082-.255-.082s-.162-.081-.307-.163c-.144-.082-.225-.164-.242-.164-1.168-.654-2.17-1.39-3.004-2.207-.835-.818-1.577-1.88-2.225-3.025-.008 0-.06-.083-.153-.246-.085-.163-.145-.245-.179-.327-.025 0-.06-.081-.102-.245a.529.529 0 0 1-.064-.246c0-.163.12-.409.358-.654.247-.245.51-.408.792-.653.29-.164.555-.41.794-.655.247-.327.37-.49.37-.653 0-.163-.03-.245-.09-.409-.06-.082-.153-.245-.28-.408-.12-.246-.192-.328-.218-.328a30.84 30.84 0 0 0-.397-.736c-.137-.245-.285-.49-.447-.818-.162-.245-.29-.49-.383-.654-.299-.573-.524-.899-.678-.98L12.786 9z" fill="#fff" fill-opacity=".2"/><path d="M12.785 9c-.23 0-.534 0-.91.082a6.416 6.416 0 0 0-.868.245c-.426.246-.878.736-1.356 1.636a4.7 4.7 0 0 0-.472 1.106l-.003.01c-.04.143-.067.29-.093.436-.012.065-.03.13-.04.196-.015.11-.017.22-.024.33-.006.093-.019.186-.019.277v.016c0 .245.013.408.038.653.034.245.09.49.166.736.077.273.137.476.18.613l.208.532c.025.064.031.09.06.163.127.327.204.573.23.654.163.45.348.867.546 1.267.16.337.328.662.514.96.432.702.98 1.412 1.614 2.14.352.415.723.838 1.136 1.275.776.76 1.533 1.403 2.275 1.947.372.281.742.545 1.107.771a11.097 11.097 0 0 0 1.825.898c.143.057.275.122.423.175.077.026.273.102.614.23.128.048.168.061.268.096.102.042.19.075.263.095.049.016.151.052.184.065.048.015.15.043.216.062.118.053.218.106.392.159.128 0 .248.02.363.047l.06.016c.108.03.212.063.307.1h.68c.784 0 1.575-.205 2.376-.64.861-.478 1.38-.927 1.559-1.354.049-.11.093-.243.136-.394l.001-.005c.045-.143.088-.306.131-.47.085-.408.128-.653.128-.898 0-.164-.013-.246-.038-.328-.007-.01-.055-.043-.069-.058a1.53 1.53 0 0 0-.34-.274l-.01.014a7.447 7.447 0 0 0-.554-.337c-.162-.082-.391-.245-.69-.409-.298-.163-.57-.245-.817-.408-.24-.164-.466-.246-.679-.409-.034 0-.14-.08-.32-.244a3.789 3.789 0 0 1-.46-.246c-.119-.082-.238-.082-.357-.082-.17 0-.384.082-.639.328-.256.245-.492.572-.704.817a5.258 5.258 0 0 1-.677.818c-.239.245-.435.328-.588.328a.47.47 0 0 1-.296-.083c-.11 0-.195-.082-.255-.082s-.162-.081-.307-.163c-.144-.082-.225-.164-.242-.164-1.168-.654-2.17-1.39-3.004-2.207-.835-.818-1.577-1.88-2.225-3.025-.008 0-.06-.083-.153-.246-.085-.163-.145-.245-.179-.327-.025 0-.06-.081-.102-.245a.529.529 0 0 1-.064-.246c0-.163.12-.409.358-.654.247-.245.51-.408.792-.653.29-.164.555-.41.794-.655.247-.327.37-.49.37-.653 0-.163-.03-.245-.09-.409-.06-.082-.153-.245-.28-.408-.12-.246-.192-.328-.218-.328a30.84 30.84 0 0 0-.397-.736c-.137-.245-.285-.49-.447-.818-.162-.245-.29-.49-.383-.654-.299-.573-.524-.899-.678-.98L12.786 9z" fill="#fff" fill-opacity=".2"/><path d="M12.785 9c-.23 0-.534 0-.91.082a6.416 6.416 0 0 0-.868.245c-.426.246-.878.736-1.356 1.636a4.7 4.7 0 0 0-.472 1.106l-.003.01c-.04.143-.067.29-.093.436-.012.065-.03.13-.04.196-.015.11-.017.22-.024.33-.006.093-.019.186-.019.277v.016c0 .245.013.408.038.653.034.245.09.49.166.736.077.273.137.476.18.613l.208.532c.025.064.031.09.06.163.127.327.204.573.23.654.163.45.348.867.546 1.267.16.337.328.662.514.96.432.702.98 1.412 1.614 2.14.352.415.723.838 1.136 1.275.776.76 1.533 1.403 2.275 1.947.372.281.742.545 1.107.771a11.097 11.097 0 0 0 1.825.898c.143.057.275.122.423.175.077.026.273.102.614.23.128.048.168.061.268.096.102.042.19.075.263.095.049.016.151.052.184.065.048.015.15.043.216.062.118.053.218.106.392.159.128 0 .248.02.363.047l.06.016c.108.03.212.063.307.1h.68c.784 0 1.575-.205 2.376-.64.861-.478 1.38-.927 1.559-1.354.049-.11.093-.243.136-.394l.001-.005c.045-.143.088-.306.131-.47.085-.408.128-.653.128-.898 0-.164-.013-.246-.038-.328-.007-.01-.055-.043-.069-.058a1.53 1.53 0 0 0-.34-.274l-.01.014a7.447 7.447 0 0 0-.554-.337c-.162-.082-.391-.245-.69-.409-.298-.163-.57-.245-.817-.408-.24-.164-.466-.246-.679-.409-.034 0-.14-.08-.32-.244a3.789 3.789 0 0 1-.46-.246c-.119-.082-.238-.082-.357-.082-.17 0-.384.082-.639.328-.256.245-.492.572-.704.817a5.258 5.258 0 0 1-.677.818c-.239.245-.435.328-.588.328a.47.47 0 0 1-.296-.083c-.11 0-.195-.082-.255-.082s-.162-.081-.307-.163c-.144-.082-.225-.164-.242-.164-1.168-.654-2.17-1.39-3.004-2.207-.835-.818-1.577-1.88-2.225-3.025-.008 0-.06-.083-.153-.246-.085-.163-.145-.245-.179-.327-.025 0-.06-.081-.102-.245a.529.529 0 0 1-.064-.246c0-.163.12-.409.358-.654.247-.245.51-.408.792-.653.29-.164.555-.41.794-.655.247-.327.37-.49.37-.653 0-.163-.03-.245-.09-.409-.06-.082-.153-.245-.28-.408-.12-.246-.192-.328-.218-.328a30.84 30.84 0 0 0-.397-.736c-.137-.245-.285-.49-.447-.818-.162-.245-.29-.49-.383-.654-.299-.573-.524-.899-.678-.98L12.786 9z" fill="#fff" fill-opacity=".2"/><path d="M12.785 9c-.23 0-.534 0-.91.082a6.416 6.416 0 0 0-.868.245c-.426.246-.878.736-1.356 1.636a4.7 4.7 0 0 0-.472 1.106l-.003.01c-.04.143-.067.29-.093.436-.012.065-.03.13-.04.196-.015.11-.017.22-.024.33-.006.093-.019.186-.019.277v.016c0 .245.013.408.038.653.034.245.09.49.166.736.077.273.137.476.18.613l.208.532c.025.064.031.09.06.163.127.327.204.573.23.654.163.45.348.867.546 1.267.16.337.328.662.514.96.432.702.98 1.412 1.614 2.14.352.415.723.838 1.136 1.275.776.76 1.533 1.403 2.275 1.947.372.281.742.545 1.107.771a11.097 11.097 0 0 0 1.825.898c.143.057.275.122.423.175.077.026.273.102.614.23.128.048.168.061.268.096.102.042.19.075.263.095.049.016.151.052.184.065.048.015.15.043.216.062.118.053.218.106.392.159.128 0 .248.02.363.047l.06.016c.108.03.212.063.307.1h.68c.784 0 1.575-.205 2.376-.64.861-.478 1.38-.927 1.559-1.354.049-.11.093-.243.136-.394l.001-.005c.045-.143.088-.306.131-.47.085-.408.128-.653.128-.898 0-.164-.013-.246-.038-.328-.007-.01-.055-.043-.069-.058a1.53 1.53 0 0 0-.34-.274l-.01.014a7.447 7.447 0 0 0-.554-.337c-.162-.082-.391-.245-.69-.409-.298-.163-.57-.245-.817-.408-.24-.164-.466-.246-.679-.409-.034 0-.14-.08-.32-.244a3.789 3.789 0 0 1-.46-.246c-.119-.082-.238-.082-.357-.082-.17 0-.384.082-.639.328-.256.245-.492.572-.704.817a5.258 5.258 0 0 1-.677.818c-.239.245-.435.328-.588.328a.47.47 0 0 1-.296-.083c-.11 0-.195-.082-.255-.082s-.162-.081-.307-.163c-.144-.082-.225-.164-.242-.164-1.168-.654-2.17-1.39-3.004-2.207-.835-.818-1.577-1.88-2.225-3.025-.008 0-.06-.083-.153-.246-.085-.163-.145-.245-.179-.327-.025 0-.06-.081-.102-.245a.529.529 0 0 1-.064-.246c0-.163.12-.409.358-.654.247-.245.51-.408.792-.653.29-.164.555-.41.794-.655.247-.327.37-.49.37-.653 0-.163-.03-.245-.09-.409-.06-.082-.153-.245-.28-.408-.12-.246-.192-.328-.218-.328a30.84 30.84 0 0 0-.397-.736c-.137-.245-.285-.49-.447-.818-.162-.245-.29-.49-.383-.654-.299-.573-.524-.899-.678-.98L12.786 9z" fill="#fff" fill-opacity=".2"/><path d="M12.785 9c-.23 0-.534 0-.91.082a6.416 6.416 0 0 0-.868.245c-.426.246-.878.736-1.356 1.636a4.7 4.7 0 0 0-.472 1.106l-.003.01c-.04.143-.067.29-.093.436-.012.065-.03.13-.04.196-.015.11-.017.22-.024.33-.006.093-.019.186-.019.277v.016c0 .245.013.408.038.653.034.245.09.49.166.736.077.273.137.476.18.613l.208.532c.025.064.031.09.06.163.127.327.204.573.23.654.163.45.348.867.546 1.267.16.337.328.662.514.96.432.702.98 1.412 1.614 2.14.352.415.723.838 1.136 1.275.776.76 1.533 1.403 2.275 1.947.372.281.742.545 1.107.771a11.097 11.097 0 0 0 1.825.898c.143.057.275.122.423.175.077.026.273.102.614.23.128.048.168.061.268.096.102.042.19.075.263.095.049.016.151.052.184.065.048.015.15.043.216.062.118.053.218.106.392.159.128 0 .248.02.363.047l.06.016c.108.03.212.063.307.1h.68c.784 0 1.575-.205 2.376-.64.861-.478 1.38-.927 1.559-1.354.049-.11.093-.243.136-.394l.001-.005c.045-.143.088-.306.131-.47.085-.408.128-.653.128-.898 0-.164-.013-.246-.038-.328-.007-.01-.055-.043-.069-.058a1.53 1.53 0 0 0-.34-.274l-.01.014a7.447 7.447 0 0 0-.554-.337c-.162-.082-.391-.245-.69-.409-.298-.163-.57-.245-.817-.408-.24-.164-.466-.246-.679-.409-.034 0-.14-.08-.32-.244a3.789 3.789 0 0 1-.46-.246c-.119-.082-.238-.082-.357-.082-.17 0-.384.082-.639.328-.256.245-.492.572-.704.817a5.258 5.258 0 0 1-.677.818c-.239.245-.435.328-.588.328a.47.47 0 0 1-.296-.083c-.11 0-.195-.082-.255-.082s-.162-.081-.307-.163c-.144-.082-.225-.164-.242-.164-1.168-.654-2.17-1.39-3.004-2.207-.835-.818-1.577-1.88-2.225-3.025-.008 0-.06-.083-.153-.246-.085-.163-.145-.245-.179-.327-.025 0-.06-.081-.102-.245a.529.529 0 0 1-.064-.246c0-.163.12-.409.358-.654.247-.245.51-.408.792-.653.29-.164.555-.41.794-.655.247-.327.37-.49.37-.653 0-.163-.03-.245-.09-.409-.06-.082-.153-.245-.28-.408-.12-.246-.192-.328-.218-.328a30.84 30.84 0 0 0-.397-.736c-.137-.245-.285-.49-.447-.818-.162-.245-.29-.49-.383-.654-.299-.573-.524-.899-.678-.98L12.786 9z" fill="#fff" fill-opacity=".2"/><path d="M12.785 9c-.23 0-.534 0-.91.082a6.416 6.416 0 0 0-.868.245c-.426.246-.878.736-1.356 1.636a4.7 4.7 0 0 0-.472 1.106l-.003.01c-.04.143-.067.29-.093.436-.012.065-.03.13-.04.196-.015.11-.017.22-.024.33-.006.093-.019.186-.019.277v.016c0 .245.013.408.038.653.034.245.09.49.166.736.077.273.137.476.18.613l.208.532c.025.064.031.09.06.163.127.327.204.573.23.654.163.45.348.867.546 1.267.16.337.328.662.514.96.432.702.98 1.412 1.614 2.14.352.415.723.838 1.136 1.275.776.76 1.533 1.403 2.275 1.947.372.281.742.545 1.107.771a11.097 11.097 0 0 0 1.825.898c.143.057.275.122.423.175.077.026.273.102.614.23.128.048.168.061.268.096.102.042.19.075.263.095.049.016.151.052.184.065.048.015.15.043.216.062.118.053.218.106.392.159.128 0 .248.02.363.047l.06.016c.108.03.212.063.307.1h.68c.784 0 1.575-.205 2.376-.64.861-.478 1.38-.927 1.559-1.354.049-.11.093-.243.136-.394l.001-.005c.045-.143.088-.306.131-.47.085-.408.128-.653.128-.898 0-.164-.013-.246-.038-.328-.007-.01-.055-.043-.069-.058a1.53 1.53 0 0 0-.34-.274l-.01.014a7.447 7.447 0 0 0-.554-.337c-.162-.082-.391-.245-.69-.409-.298-.163-.57-.245-.817-.408-.24-.164-.466-.246-.679-.409-.034 0-.14-.08-.32-.244a3.789 3.789 0 0 1-.46-.246c-.119-.082-.238-.082-.357-.082-.17 0-.384.082-.639.328-.256.245-.492.572-.704.817a5.258 5.258 0 0 1-.677.818c-.239.245-.435.328-.588.328a.47.47 0 0 1-.296-.083c-.11 0-.195-.082-.255-.082s-.162-.081-.307-.163c-.144-.082-.225-.164-.242-.164-1.168-.654-2.17-1.39-3.004-2.207-.835-.818-1.577-1.88-2.225-3.025-.008 0-.06-.083-.153-.246-.085-.163-.145-.245-.179-.327-.025 0-.06-.081-.102-.245a.529.529 0 0 1-.064-.246c0-.163.12-.409.358-.654.247-.245.51-.408.792-.653.29-.164.555-.41.794-.655.247-.327.37-.49.37-.653 0-.163-.03-.245-.09-.409-.06-.082-.153-.245-.28-.408-.12-.246-.192-.328-.218-.328a30.84 30.84 0 0 0-.397-.736c-.137-.245-.285-.49-.447-.818-.162-.245-.29-.49-.383-.654-.299-.573-.524-.899-.678-.98L12.786 9z" fill="#fff" fill-opacity=".2"/><path d="M12.785 9c-.23 0-.534 0-.91.082a6.416 6.416 0 0 0-.868.245c-.426.246-.878.736-1.356 1.636a4.7 4.7 0 0 0-.472 1.106l-.003.01c-.04.143-.067.29-.093.436-.012.065-.03.13-.04.196-.015.11-.017.22-.024.33-.006.093-.019.186-.019.277v.016c0 .245.013.408.038.653.034.245.09.49.166.736.077.273.137.476.18.613l.208.532c.025.064.031.09.06.163.127.327.204.573.23.654.163.45.348.867.546 1.267.16.337.328.662.514.96.432.702.98 1.412 1.614 2.14.352.415.723.838 1.136 1.275.776.76 1.533 1.403 2.275 1.947.372.281.742.545 1.107.771a11.097 11.097 0 0 0 1.825.898c.143.057.275.122.423.175.077.026.273.102.614.23.128.048.168.061.268.096.102.042.19.075.263.095.049.016.151.052.184.065.048.015.15.043.216.062.118.053.218.106.392.159.128 0 .248.02.363.047l.06.016c.108.03.212.063.307.1h.68c.784 0 1.575-.205 2.376-.64.861-.478 1.38-.927 1.559-1.354.049-.11.093-.243.136-.394l.001-.005c.045-.143.088-.306.131-.47.085-.408.128-.653.128-.898 0-.164-.013-.246-.038-.328-.007-.01-.055-.043-.069-.058a1.53 1.53 0 0 0-.34-.274l-.01.014a7.447 7.447 0 0 0-.554-.337c-.162-.082-.391-.245-.69-.409-.298-.163-.57-.245-.817-.408-.24-.164-.466-.246-.679-.409-.034 0-.14-.08-.32-.244a3.789 3.789 0 0 1-.46-.246c-.119-.082-.238-.082-.357-.082-.17 0-.384.082-.639.328-.256.245-.492.572-.704.817a5.258 5.258 0 0 1-.677.818c-.239.245-.435.328-.588.328a.47.47 0 0 1-.296-.083c-.11 0-.195-.082-.255-.082s-.162-.081-.307-.163c-.144-.082-.225-.164-.242-.164-1.168-.654-2.17-1.39-3.004-2.207-.835-.818-1.577-1.88-2.225-3.025-.008 0-.06-.083-.153-.246-.085-.163-.145-.245-.179-.327-.025 0-.06-.081-.102-.245a.529.529 0 0 1-.064-.246c0-.163.12-.409.358-.654.247-.245.51-.408.792-.653.29-.164.555-.41.794-.655.247-.327.37-.49.37-.653 0-.163-.03-.245-.09-.409-.06-.082-.153-.245-.28-.408-.12-.246-.192-.328-.218-.328a30.84 30.84 0 0 0-.397-.736c-.137-.245-.285-.49-.447-.818-.162-.245-.29-.49-.383-.654-.299-.573-.524-.899-.678-.98L12.786 9z" fill="#fff" fill-opacity=".2"/><path d="M12.785 9c-.23 0-.534 0-.91.082a6.416 6.416 0 0 0-.868.245c-.426.246-.878.736-1.356 1.636a4.7 4.7 0 0 0-.472 1.106l-.003.01c-.04.143-.067.29-.093.436-.012.065-.03.13-.04.196-.015.11-.017.22-.024.33-.006.093-.019.186-.019.277v.016c0 .245.013.408.038.653.034.245.09.49.166.736.077.273.137.476.18.613l.208.532c.025.064.031.09.06.163.127.327.204.573.23.654.163.45.348.867.546 1.267.16.337.328.662.514.96.432.702.98 1.412 1.614 2.14.352.415.723.838 1.136 1.275.776.76 1.533 1.403 2.275 1.947.372.281.742.545 1.107.771a11.097 11.097 0 0 0 1.825.898c.143.057.275.122.423.175.077.026.273.102.614.23.128.048.168.061.268.096.102.042.19.075.263.095.049.016.151.052.184.065.048.015.15.043.216.062.118.053.218.106.392.159.128 0 .248.02.363.047l.06.016c.108.03.212.063.307.1h.68c.784 0 1.575-.205 2.376-.64.861-.478 1.38-.927 1.559-1.354.049-.11.093-.243.136-.394l.001-.005c.045-.143.088-.306.131-.47.085-.408.128-.653.128-.898 0-.164-.013-.246-.038-.328-.007-.01-.055-.043-.069-.058a1.53 1.53 0 0 0-.34-.274l-.01.014a7.447 7.447 0 0 0-.554-.337c-.162-.082-.391-.245-.69-.409-.298-.163-.57-.245-.817-.408-.24-.164-.466-.246-.679-.409-.034 0-.14-.08-.32-.244a3.789 3.789 0 0 1-.46-.246c-.119-.082-.238-.082-.357-.082-.17 0-.384.082-.639.328-.256.245-.492.572-.704.817a5.258 5.258 0 0 1-.677.818c-.239.245-.435.328-.588.328a.47.47 0 0 1-.296-.083c-.11 0-.195-.082-.255-.082s-.162-.081-.307-.163c-.144-.082-.225-.164-.242-.164-1.168-.654-2.17-1.39-3.004-2.207-.835-.818-1.577-1.88-2.225-3.025-.008 0-.06-.083-.153-.246-.085-.163-.145-.245-.179-.327-.025 0-.06-.081-.102-.245a.529.529 0 0 1-.064-.246c0-.163.12-.409.358-.654.247-.245.51-.408.792-.653.29-.164.555-.41.794-.655.247-.327.37-.49.37-.653 0-.163-.03-.245-.09-.409-.06-.082-.153-.245-.28-.408-.12-.246-.192-.328-.218-.328a30.84 30.84 0 0 0-.397-.736c-.137-.245-.285-.49-.447-.818-.162-.245-.29-.49-.383-.654-.299-.573-.524-.899-.678-.98L12.786 9z" fill="#fff" fill-opacity=".2"/><path d="M12.785 9c-.23 0-.534 0-.91.082a6.416 6.416 0 0 0-.868.245c-.426.246-.878.736-1.356 1.636a4.7 4.7 0 0 0-.472 1.106l-.003.01c-.04.143-.067.29-.093.436-.012.065-.03.13-.04.196-.015.11-.017.22-.024.33-.006.093-.019.186-.019.277v.016c0 .245.013.408.038.653.034.245.09.49.166.736.077.273.137.476.18.613l.208.532c.025.064.031.09.06.163.127.327.204.573.23.654.163.45.348.867.546 1.267.16.337.328.662.514.96.432.702.98 1.412 1.614 2.14.352.415.723.838 1.136 1.275.776.76 1.533 1.403 2.275 1.947.372.281.742.545 1.107.771a11.097 11.097 0 0 0 1.825.898c.143.057.275.122.423.175.077.026.273.102.614.23.128.048.168.061.268.096.102.042.19.075.263.095.049.016.151.052.184.065.048.015.15.043.216.062.118.053.218.106.392.159.128 0 .248.02.363.047l.06.016c.108.03.212.063.307.1h.68c.784 0 1.575-.205 2.376-.64.861-.478 1.38-.927 1.559-1.354.049-.11.093-.243.136-.394l.001-.005c.045-.143.088-.306.131-.47.085-.408.128-.653.128-.898 0-.164-.013-.246-.038-.328-.007-.01-.055-.043-.069-.058a1.53 1.53 0 0 0-.34-.274l-.01.014a7.447 7.447 0 0 0-.554-.337c-.162-.082-.391-.245-.69-.409-.298-.163-.57-.245-.817-.408-.24-.164-.466-.246-.679-.409-.034 0-.14-.08-.32-.244a3.789 3.789 0 0 1-.46-.246c-.119-.082-.238-.082-.357-.082-.17 0-.384.082-.639.328-.256.245-.492.572-.704.817a5.258 5.258 0 0 1-.677.818c-.239.245-.435.328-.588.328a.47.47 0 0 1-.296-.083c-.11 0-.195-.082-.255-.082s-.162-.081-.307-.163c-.144-.082-.225-.164-.242-.164-1.168-.654-2.17-1.39-3.004-2.207-.835-.818-1.577-1.88-2.225-3.025-.008 0-.06-.083-.153-.246-.085-.163-.145-.245-.179-.327-.025 0-.06-.081-.102-.245a.529.529 0 0 1-.064-.246c0-.163.12-.409.358-.654.247-.245.51-.408.792-.653.29-.164.555-.41.794-.655.247-.327.37-.49.37-.653 0-.163-.03-.245-.09-.409-.06-.082-.153-.245-.28-.408-.12-.246-.192-.328-.218-.328a30.84 30.84 0 0 0-.397-.736c-.137-.245-.285-.49-.447-.818-.162-.245-.29-.49-.383-.654-.299-.573-.524-.899-.678-.98L12.786 9z" fill="#fff" fill-opacity=".2"/><path d="M12.785 9c-.23 0-.534 0-.91.082a6.416 6.416 0 0 0-.868.245c-.426.246-.878.736-1.356 1.636a4.7 4.7 0 0 0-.472 1.106l-.003.01c-.04.143-.067.29-.093.436-.012.065-.03.13-.04.196-.015.11-.017.22-.024.33-.006.093-.019.186-.019.277v.016c0 .245.013.408.038.653.034.245.09.49.166.736.077.273.137.476.18.613l.208.532c.025.064.031.09.06.163.127.327.204.573.23.654.163.45.348.867.546 1.267.16.337.328.662.514.96.432.702.98 1.412 1.614 2.14.352.415.723.838 1.136 1.275.776.76 1.533 1.403 2.275 1.947.372.281.742.545 1.107.771a11.097 11.097 0 0 0 1.825.898c.143.057.275.122.423.175.077.026.273.102.614.23.128.048.168.061.268.096.102.042.19.075.263.095.049.016.151.052.184.065.048.015.15.043.216.062.118.053.218.106.392.159.128 0 .248.02.363.047l.06.016c.108.03.212.063.307.1h.68c.784 0 1.575-.205 2.376-.64.861-.478 1.38-.927 1.559-1.354.049-.11.093-.243.136-.394l.001-.005c.045-.143.088-.306.131-.47.085-.408.128-.653.128-.898 0-.164-.013-.246-.038-.328-.007-.01-.055-.043-.069-.058a1.53 1.53 0 0 0-.34-.274l-.01.014a7.447 7.447 0 0 0-.554-.337c-.162-.082-.391-.245-.69-.409-.298-.163-.57-.245-.817-.408-.24-.164-.466-.246-.679-.409-.034 0-.14-.08-.32-.244a3.789 3.789 0 0 1-.46-.246c-.119-.082-.238-.082-.357-.082-.17 0-.384.082-.639.328-.256.245-.492.572-.704.817a5.258 5.258 0 0 1-.677.818c-.239.245-.435.328-.588.328a.47.47 0 0 1-.296-.083c-.11 0-.195-.082-.255-.082s-.162-.081-.307-.163c-.144-.082-.225-.164-.242-.164-1.168-.654-2.17-1.39-3.004-2.207-.835-.818-1.577-1.88-2.225-3.025-.008 0-.06-.083-.153-.246-.085-.163-.145-.245-.179-.327-.025 0-.06-.081-.102-.245a.529.529 0 0 1-.064-.246c0-.163.12-.409.358-.654.247-.245.51-.408.792-.653.29-.164.555-.41.794-.655.247-.327.37-.49.37-.653 0-.163-.03-.245-.09-.409-.06-.082-.153-.245-.28-.408-.12-.246-.192-.328-.218-.328a30.84 30.84 0 0 0-.397-.736c-.137-.245-.285-.49-.447-.818-.162-.245-.29-.49-.383-.654-.299-.573-.524-.899-.678-.98L12.786 9z" fill="#fff" fill-opacity=".2"/></svg>