<svg xmlns="http://www.w3.org/2000/svg" width="22" height="22" viewBox="0 0 19 18" fill="none"><path d="M3.66797 4.55554H15.9257C16.1741 4.55555 16.4197 4.6076 16.6468 4.70835C16.8738 4.80909 17.0772 4.95628 17.2438 5.14044C17.4105 5.3246 17.5367 5.54164 17.6144 5.77757C17.692 6.01349 17.7193 6.26307 17.6946 6.51021L17.1613 11.8435C17.1174 12.2822 16.9121 12.6889 16.5853 12.9848C16.2584 13.2806 15.8333 13.4444 15.3924 13.4444H6.90352C6.49239 13.4446 6.0939 13.3023 5.77592 13.0416C5.45793 12.781 5.24011 12.4183 5.15952 12.0151L3.66797 4.55554Z" stroke="#BDA26E" stroke-width="2" stroke-linejoin="round"/><path d="M3.66667 4.55556L2.94667 1.67289C2.89851 1.48067 2.78751 1.31005 2.6313 1.18814C2.47508 1.06622 2.2826 1.00001 2.08444 1H1" stroke="#BDA26E" stroke-width="2" stroke-linecap="round" stroke-linejoin="round"/><path d="M6.33301 17H8.11079" stroke="#BDA26E" stroke-width="2" stroke-linecap="round" stroke-linejoin="round"/><path d="M13.4443 17H15.2221" stroke="#BDA26E" stroke-width="2" stroke-linecap="round" stroke-linejoin="round"/></svg>