<svg width="13" height="12" viewBox="0 0 13 12" fill="none" xmlns="http://www.w3.org/2000/svg"><path fill-rule="evenodd" clip-rule="evenodd" d="M9.75 1.807c-.222.749-1.022 1.179-1.786.96a1.408 1.408 0 0 1-.98-1.75C7.207.27 8.006-.16 8.77.057a1.408 1.408 0 0 1 .98 1.75zM6.599 5.763c-.28.314-.27.788-.033 1.137.721 1.065 1.011 2.404.71 3.702a.885.885 0 0 1-1.058.654.867.867 0 0 1-.668-1.037c.26-1.121-.184-2.32-1.087-3.042-.648-.517-1.03-1.62-.31-2.455l1.025-1.188v-.002c.862-.995 2.34-.795 3.066.104.504.624 1.028 1.027 1.932 1.218a.867.867 0 0 1 .678 1.03.885.885 0 0 1-1.051.665c-.803-.17-1.429-.468-1.949-.856-.383-.287-.936-.288-1.255.07zm5.222 3.78c0 .719-.594 1.301-1.327 1.301s-1.327-.582-1.327-1.3c0-.718.594-1.3 1.327-1.3s1.327.582 1.327 1.3zm1.18 0C13 10.9 11.878 12 10.493 12s-2.507-1.1-2.507-2.456c0-1.357 1.122-2.456 2.507-2.456S13 8.188 13 9.544zM2.529 10.845c.733 0 1.327-.582 1.327-1.3 0-.718-.594-1.3-1.327-1.3s-1.327.582-1.327 1.3c0 .718.594 1.3 1.327 1.3zm0 1.156c1.385 0 2.507-1.1 2.507-2.456 0-1.357-1.122-2.456-2.507-2.456S.022 8.188.022 9.544C.022 10.9 1.144 12 2.529 12zM3.112.36A1.047 1.047 0 0 0 1.66.5L.234 2.203a.997.997 0 0 0 .144 1.424l1.736 1.396c.441.354 1.092.291 1.453-.14L4.992 3.18a.997.997 0 0 0-.143-1.423L3.112.36z" fill="#4945BE"/></svg>