<svg xmlns="http://www.w3.org/2000/svg" width="40px" height="40px" viewBox="0 0 40 39" fill="none"><path fill="#fff" d="M34.023 5.685C30.17 1.913 25.466 0 20.038 0 14.56 0 9.842 1.915 6.012 5.687 2.176 9.46.231 14.11.231 19.5c0 5.34 1.943 9.973 5.775 13.767 3.832 3.804 8.552 5.732 14.032 5.732 5.43 0 10.135-1.928 13.99-5.726 3.862-3.798 5.818-8.433 5.818-13.773 0-5.39-1.959-10.04-5.823-13.815zM30.915 30.21c-2.502 2.468-5.361 3.874-8.676 4.301V23.833h4.402V19.5h-4.402v-3.034c0-.17.034-.34.101-.498.067-.157.164-.3.287-.422.123-.12.269-.216.429-.281.16-.066.332-.099.506-.099h3.079v-4.333h-3.075c-1.633 0-2.995.592-4.087 1.781-1.091 1.185-1.641 2.633-1.641 4.35V19.5h-4.402v4.333h4.402v10.681c-3.35-.422-6.22-1.83-8.71-4.298-3.025-2.999-4.496-6.504-4.496-10.716 0-4.26 1.468-7.774 4.495-10.747 3.015-2.975 6.585-4.42 10.911-4.42 4.281 0 7.84 1.448 10.884 4.427 3.043 2.972 4.522 6.487 4.522 10.74 0 4.205-1.48 7.71-4.529 10.71z"/></svg>