<svg xmlns="http://www.w3.org/2000/svg" width="40px" height="40px" viewBox="0 0 40 39" fill="none"><path fill="#fff" d="M33.474 0H7.064C3.323 0 .462 2.817.462 6.5v26c0 3.683 2.86 6.5 6.602 6.5h26.41c3.742 0 6.603-2.817 6.603-6.5v-26c0-3.683-2.861-6.5-6.603-6.5zM20.27 13c3.742 0 6.603 2.816 6.603 6.5 0 3.683-2.861 6.5-6.603 6.5-3.741 0-6.602-2.817-6.602-6.5 0-3.684 2.86-6.5 6.602-6.5zm8.364-4.333c0-1.517 1.32-2.6 2.64-2.6 1.321 0 2.641 1.3 2.641 2.6s-1.1 2.6-2.64 2.6c-1.541 0-2.642-1.084-2.642-2.6zm4.841 26H7.064c-1.32 0-2.2-.868-2.2-2.168v-13h4.401c0 6.067 4.842 10.834 11.004 10.834 6.163 0 11.005-4.767 11.005-10.833h4.401v13c0 1.3-.88 2.166-2.2 2.166z"/></svg>