<svg xmlns="http://www.w3.org/2000/svg" width="18" height="12" viewBox="0 0 24 24" fill="none"><path d="M23.9655 9.11342C23.8828 8.84655 23.6629 8.65206 23.398 8.61176L15.9579 7.47837L12.6305 0.410852C12.5121 0.15926 12.2676 0 12 0C11.7324 0 11.488 0.15926 11.3695 0.410852L8.04197 7.47837L0.602007 8.61176C0.337211 8.65206 0.117134 8.84655 0.0344468 9.11338C-0.0482872 9.38025 0.0207125 9.67317 0.212384 9.86899L5.59586 15.3703L4.32518 23.1383C4.2799 23.4149 4.38837 23.6943 4.60488 23.8593C4.72736 23.9525 4.87244 24 5.01822 24C5.13016 24 5.24247 23.972 5.34531 23.9153L12 20.2477L18.6544 23.9153C18.8913 24.0458 19.1783 24.0241 19.3949 23.8592C19.6114 23.6943 19.7199 23.4148 19.6747 23.1382L18.4036 15.3703L23.7876 9.86894C23.9793 9.67317 24.0483 9.38025 23.9655 9.11342Z" fill="#F7B500"/></svg>