<svg xmlns="http://www.w3.org/2000/svg" width="40px" height="40px" viewBox="0 0 50 39" fill="none"><path fill="#fff" d="M43.808 6.178C46 4.853 47.45 3.045 48.162.745c-2.002 1.066-4.15 1.84-6.378 2.3C39.876 1.025 37.462 0 34.566 0c-2.83 0-5.22.978-7.17 2.88-.943.902-1.687 1.985-2.19 3.182-.501 1.196-.75 2.481-.73 3.775 0 .826.106 1.563.318 2.188-8.346-.28-15.254-3.689-20.697-10.249-.922 1.605-1.383 3.24-1.383 4.93 0 3.476 1.49 6.23 4.463 8.252-1.696-.142-3.19-.564-4.463-1.256 0 2.482.74 4.554 2.224 6.379 1.442 1.777 3.474 2.998 5.739 3.448-.847.214-1.74.315-2.656.315-.847 0-1.447-.07-1.802-.222.624 2.022 1.802 3.662 3.503 4.918 1.681 1.257 3.727 1.952 5.839 1.984-3.614 2.791-7.747 4.172-12.421 4.172-1.145 0-1.957-.016-2.448-.101 4.605 2.943 9.73 4.404 15.4 4.404 5.804 0 10.932-1.447 15.395-4.343 4.463-2.879 7.757-6.431 9.873-10.614 2.093-4.048 3.183-8.525 3.18-13.067v-1.25c1.95-1.416 3.64-3.151 4.992-5.13-1.827.779-3.752 1.311-5.724 1.583z"/></svg>