<svg xmlns="http://www.w3.org/2000/svg" width="45" height="45" viewBox="0 0 64 64" fill="none"><circle cx="32" cy="32" r="32" fill="#C0C0C9"/><path d="M49.9659 47.7122C49.9659 47.9854 49.8122 48.2358 49.5049 48.4634C49.1976 48.6911 48.7252 48.8789 48.0878 49.0268C47.4504 49.1748 46.7959 49.3114 46.1244 49.4366C45.4528 49.5618 44.5935 49.6585 43.5463 49.7268C42.4992 49.7951 41.5886 49.8463 40.8146 49.8805C40.0407 49.9146 39.0447 49.9431 37.8268 49.9659C36.6089 49.9886 35.687 50 35.061 50H29.9049L27.139 49.9659L24.1512 49.8805L21.4195 49.7268L18.8415 49.4366L16.878 49.0268L15.461 48.4634L15 47.7122C15.0455 45.7089 16.2976 43.939 18.7561 42.4024C21.2146 40.8659 24.3333 39.8472 28.1122 39.3463V38.2195C26.9285 37.6959 25.9041 36.9561 25.039 36C24.174 35.0439 23.4911 33.9228 22.9902 32.6366C22.4894 31.3504 22.1252 29.9732 21.8976 28.5049C21.6699 27.0366 21.5561 25.4488 21.5561 23.7415C21.5561 22.2846 21.8407 20.987 22.4098 19.8488C22.9789 18.7106 23.7642 17.7943 24.7659 17.1C25.7675 16.4057 26.9171 15.8821 28.2146 15.5293C29.5122 15.1764 30.935 15 32.4829 15C34.0309 15 35.4537 15.1764 36.7512 15.5293C38.0488 15.8821 39.1984 16.4057 40.2 17.1C41.2016 17.7943 41.987 18.7106 42.5561 19.8488C43.1252 20.987 43.4098 22.2846 43.4098 23.7415C43.4098 31.7089 41.2244 36.5577 36.8537 38.2878V39.3463C40.6325 39.8472 43.7512 40.8659 46.2098 42.4024C48.6683 43.939 49.9203 45.7089 49.9659 47.7122Z" fill="#fff"/></svg>