<svg width="40" height="39" viewBox="0 0 40 39" fill="none" xmlns="http://www.w3.org/2000/svg"><path d="M17.1625 30.5424C16.7796 31.0755 16.417 31.3382 16.0703 31.3382C15.8393 31.3382 15.7078 31.2049 15.6659 30.9406C15.6494 30.8859 15.6494 30.6784 15.6494 30.2797V23.3677H13.9229V30.7911C13.9229 31.4546 13.9801 31.9021 14.0753 32.1865C14.2475 32.6621 14.6315 32.8847 15.1883 32.8847C15.8233 32.8847 16.4759 32.5072 17.162 31.7315V32.7558H18.8913V23.3682H17.1625V30.5424Z" fill="white"/><path d="M7.64551 21.934H9.67797V32.7591H11.5993V21.934H13.6692V20.1606H7.64551V21.934Z" fill="white"/><path d="M19.4126 13.725C19.9755 13.725 20.2451 13.2862 20.2451 12.4081V8.41674C20.2451 7.5397 19.9755 7.10254 19.4126 7.10254C18.8492 7.10254 18.5791 7.5397 18.5791 8.41674V12.4081C18.5797 13.2857 18.8492 13.725 19.4126 13.725Z" fill="white"/><path d="M23.8973 23.2573C23.2624 23.2573 22.6703 23.5996 22.113 24.2756V20.1606H20.3848V32.759H22.113V31.848C22.6896 32.5516 23.2833 32.8879 23.8973 32.8879C24.5856 32.8879 25.0478 32.5315 25.2789 31.8333C25.3939 31.4352 25.4527 30.8102 25.4527 29.9419V26.2039C25.4527 25.3156 25.3939 24.6948 25.2789 24.3173C25.0472 23.6137 24.5856 23.2573 23.8973 23.2573ZM23.7251 30.0751C23.7251 30.9228 23.4714 31.341 22.9735 31.341C22.6896 31.341 22.4013 31.2077 22.1124 30.9234V25.2013C22.4013 24.9213 22.689 24.788 22.9735 24.788C23.472 24.788 23.7251 25.2224 23.7251 26.069V30.0751Z" fill="white"/><path d="M29.4009 23.2544C28.5195 23.2544 27.8306 23.5745 27.3321 24.2174C26.9646 24.6914 26.7979 25.4248 26.7979 26.4274V29.7163C26.7979 30.7129 26.986 31.4544 27.353 31.9229C27.8521 32.5637 28.5398 32.8844 29.4444 32.8844C30.3467 32.8844 31.0548 32.548 31.5335 31.8677C31.7446 31.5621 31.8825 31.2134 31.9368 30.8478C31.9522 30.6771 31.9737 30.2991 31.9737 29.752V29.5028H30.2103C30.2103 30.1853 30.1888 30.5629 30.1728 30.6555C30.0744 31.1099 29.8257 31.3374 29.4009 31.3374C28.8078 31.3374 28.5195 30.9041 28.5195 30.0353V28.3713H31.9742V26.4268C31.9742 25.4237 31.8009 24.6908 31.4394 24.2169C30.9558 23.574 30.268 23.2544 29.4009 23.2544ZM30.2466 26.956H28.5195V26.0878C28.5195 25.22 28.8078 24.7856 29.3855 24.7856C29.9572 24.7856 30.2466 25.22 30.2466 26.0878V26.956Z" fill="white"/><path d="M35.7639 0.000488281H3.8515C1.73317 0.000488281 0 1.70671 0 3.79209V35.2082C0 37.2936 1.73317 38.9998 3.8515 38.9998H35.7639C37.8822 38.9998 39.6154 37.2936 39.6154 35.2082V3.79209C39.6154 1.70671 37.8822 0.000488281 35.7639 0.000488281ZM23.4281 5.67164H25.1684V12.6547C25.1684 13.0588 25.1684 13.2684 25.1899 13.3236C25.2284 13.5901 25.3648 13.7261 25.5992 13.7261C25.9481 13.7261 26.3151 13.4596 26.7019 12.9212V5.67164H28.4482V15.1561H26.7019V14.1215C26.0069 14.9064 25.3439 15.2877 24.7073 15.2877C24.145 15.2877 23.7571 15.0629 23.5827 14.5819C23.4864 14.2954 23.4281 13.8409 23.4281 13.1714V5.67164ZM16.8327 8.76343C16.8327 7.74999 17.0082 7.00846 17.3796 6.52909C17.8627 5.88127 18.5427 5.55681 19.4121 5.55681C20.2869 5.55681 20.9659 5.88127 21.4495 6.52909C21.8149 7.00846 21.9915 7.74999 21.9915 8.76343V12.0865C21.9915 13.094 21.8154 13.8415 21.4495 14.3176C20.9659 14.9638 20.2875 15.2882 19.4121 15.2882C18.5422 15.2882 17.8621 14.9638 17.3796 14.3176C17.0082 13.8415 16.8327 13.094 16.8327 12.0865V8.76343ZM12.1636 2.4282L13.5386 7.42607L14.8585 2.4282H16.8162L14.4877 10.0017V15.1561H12.5509V10.0017C12.376 9.08734 11.9886 7.74944 11.368 5.97443C10.9597 4.79362 10.5344 3.60739 10.1267 2.4282H12.1636ZM33.6032 33.3222C33.2544 34.8188 32.0098 35.9227 30.5132 36.0868C26.9676 36.4768 23.3797 36.479 19.8077 36.4768C16.2352 36.479 12.6472 36.4768 9.10218 36.0868C7.60505 35.9221 6.36267 34.8182 6.01328 33.3222C5.51534 31.1902 5.51534 28.8633 5.51534 26.6695C5.51534 24.4737 5.52084 22.1483 6.01934 20.0158C6.36817 18.5198 7.6111 17.4164 9.10824 17.2517C12.6533 16.8607 16.2412 16.8596 19.8137 16.8607C23.3857 16.8596 26.9737 16.8607 30.5192 17.2517C32.0153 17.4164 33.2593 18.5198 33.6087 20.0158C34.1066 22.1489 34.1039 24.4737 34.1039 26.6695C34.1044 28.8633 34.1017 31.1902 33.6032 33.3222Z" fill="white"/></svg>